<mxfile host="app.diagrams.net" modified="2023-09-21T17:28:25.395Z" agent="Mozilla/5.0 (Windows NT 10.0; Win64; x64) AppleWebKit/537.36 (KHTML, like Gecko) Chrome/116.0.0.0 Safari/537.36" etag="SwBLjHAlNWo5Fv_mzSZX" version="21.8.0" type="github" pages="2">
  <diagram name="Page-1" id="tO4wtkiXuZUs4kwhM4rJ">
    <mxGraphModel dx="833" dy="560" grid="0" gridSize="10" guides="1" tooltips="1" connect="1" arrows="1" fold="1" page="0" pageScale="1" pageWidth="850" pageHeight="1100" math="0" shadow="0">
      <root>
        <mxCell id="0" />
        <mxCell id="1" parent="0" />
      </root>
    </mxGraphModel>
  </diagram>
  <diagram id="0LPrCPOWZV9A5NgvUEO3" name="Page-2">
    <mxGraphModel dx="508" dy="413" grid="1" gridSize="10" guides="1" tooltips="1" connect="1" arrows="1" fold="1" page="1" pageScale="1" pageWidth="850" pageHeight="1100" math="0" shadow="0">
      <root>
        <mxCell id="0" />
        <mxCell id="1" parent="0" />
        <mxCell id="77gUK4rj3Sacq6G8mzVL-126" value="" style="group" vertex="1" connectable="0" parent="1">
          <mxGeometry x="154.68000000000004" y="19.839999999999968" width="385.6399999999999" height="350.16" as="geometry" />
        </mxCell>
        <mxCell id="77gUK4rj3Sacq6G8mzVL-3" value="" style="endArrow=none;html=1;rounded=0;entryX=0;entryY=0.25;entryDx=0;entryDy=0;" edge="1" parent="77gUK4rj3Sacq6G8mzVL-126" target="77gUK4rj3Sacq6G8mzVL-4">
          <mxGeometry width="50" height="50" relative="1" as="geometry">
            <mxPoint x="35.319999999999965" y="320.16" as="sourcePoint" />
            <mxPoint x="35.319999999999965" y="310.16" as="targetPoint" />
          </mxGeometry>
        </mxCell>
        <mxCell id="77gUK4rj3Sacq6G8mzVL-4" value="" style="triangle;whiteSpace=wrap;html=1;rotation=-90;" vertex="1" parent="77gUK4rj3Sacq6G8mzVL-126">
          <mxGeometry x="35.319999999999965" y="270.16" width="19.685" height="19.685" as="geometry" />
        </mxCell>
        <mxCell id="77gUK4rj3Sacq6G8mzVL-5" value="" style="endArrow=none;html=1;rounded=0;entryX=0;entryY=0.25;entryDx=0;entryDy=0;" edge="1" parent="77gUK4rj3Sacq6G8mzVL-126">
          <mxGeometry width="50" height="50" relative="1" as="geometry">
            <mxPoint x="55.319999999999965" y="320.16" as="sourcePoint" />
            <mxPoint x="50.319999999999965" y="289.84000000000003" as="targetPoint" />
          </mxGeometry>
        </mxCell>
        <mxCell id="77gUK4rj3Sacq6G8mzVL-6" value="" style="triangle;whiteSpace=wrap;html=1;rotation=-90;" vertex="1" parent="77gUK4rj3Sacq6G8mzVL-126">
          <mxGeometry x="46.85999999999996" y="240.16000000000003" width="19.685" height="19.685" as="geometry" />
        </mxCell>
        <mxCell id="77gUK4rj3Sacq6G8mzVL-7" style="rounded=0;orthogonalLoop=1;jettySize=auto;html=1;exitX=1;exitY=0.5;exitDx=0;exitDy=0;endArrow=none;endFill=0;entryX=0;entryY=0.25;entryDx=0;entryDy=0;" edge="1" parent="77gUK4rj3Sacq6G8mzVL-126" source="77gUK4rj3Sacq6G8mzVL-4" target="77gUK4rj3Sacq6G8mzVL-6">
          <mxGeometry relative="1" as="geometry">
            <mxPoint x="65.31999999999996" y="240.16000000000003" as="targetPoint" />
          </mxGeometry>
        </mxCell>
        <mxCell id="77gUK4rj3Sacq6G8mzVL-17" style="rounded=0;orthogonalLoop=1;jettySize=auto;html=1;endArrow=none;endFill=0;entryX=0;entryY=0.75;entryDx=0;entryDy=0;" edge="1" parent="77gUK4rj3Sacq6G8mzVL-126" target="77gUK4rj3Sacq6G8mzVL-6">
          <mxGeometry relative="1" as="geometry">
            <mxPoint x="75.31999999999996" y="320.16" as="sourcePoint" />
            <mxPoint x="75.31999999999996" y="240.16000000000003" as="targetPoint" />
          </mxGeometry>
        </mxCell>
        <mxCell id="77gUK4rj3Sacq6G8mzVL-18" value="" style="endArrow=none;html=1;rounded=0;entryX=0;entryY=0.25;entryDx=0;entryDy=0;" edge="1" parent="77gUK4rj3Sacq6G8mzVL-126" target="77gUK4rj3Sacq6G8mzVL-20">
          <mxGeometry width="50" height="50" relative="1" as="geometry">
            <mxPoint x="223.72999999999993" y="319.84000000000003" as="sourcePoint" />
            <mxPoint x="223.72999999999993" y="309.84000000000003" as="targetPoint" />
          </mxGeometry>
        </mxCell>
        <mxCell id="77gUK4rj3Sacq6G8mzVL-20" value="" style="triangle;whiteSpace=wrap;html=1;rotation=-90;" vertex="1" parent="77gUK4rj3Sacq6G8mzVL-126">
          <mxGeometry x="223.72999999999993" y="269.84000000000003" width="19.685" height="19.685" as="geometry" />
        </mxCell>
        <mxCell id="77gUK4rj3Sacq6G8mzVL-21" value="" style="endArrow=none;html=1;rounded=0;entryX=0;entryY=0.25;entryDx=0;entryDy=0;" edge="1" parent="77gUK4rj3Sacq6G8mzVL-126">
          <mxGeometry width="50" height="50" relative="1" as="geometry">
            <mxPoint x="243.72999999999993" y="319.84000000000003" as="sourcePoint" />
            <mxPoint x="238.72999999999993" y="289.52000000000004" as="targetPoint" />
          </mxGeometry>
        </mxCell>
        <mxCell id="77gUK4rj3Sacq6G8mzVL-23" value="" style="endArrow=none;html=1;rounded=0;entryX=0;entryY=0.25;entryDx=0;entryDy=0;" edge="1" parent="77gUK4rj3Sacq6G8mzVL-126" target="77gUK4rj3Sacq6G8mzVL-24">
          <mxGeometry width="50" height="50" relative="1" as="geometry">
            <mxPoint x="273.40999999999997" y="319.84000000000003" as="sourcePoint" />
            <mxPoint x="273.40999999999997" y="309.84000000000003" as="targetPoint" />
          </mxGeometry>
        </mxCell>
        <mxCell id="77gUK4rj3Sacq6G8mzVL-24" value="" style="triangle;whiteSpace=wrap;html=1;rotation=-90;" vertex="1" parent="77gUK4rj3Sacq6G8mzVL-126">
          <mxGeometry x="273.40999999999997" y="269.84000000000003" width="19.685" height="19.685" as="geometry" />
        </mxCell>
        <mxCell id="77gUK4rj3Sacq6G8mzVL-25" value="" style="endArrow=none;html=1;rounded=0;entryX=0;entryY=0.25;entryDx=0;entryDy=0;" edge="1" parent="77gUK4rj3Sacq6G8mzVL-126">
          <mxGeometry width="50" height="50" relative="1" as="geometry">
            <mxPoint x="293.40999999999997" y="319.84000000000003" as="sourcePoint" />
            <mxPoint x="288.40999999999997" y="289.52000000000004" as="targetPoint" />
          </mxGeometry>
        </mxCell>
        <mxCell id="77gUK4rj3Sacq6G8mzVL-26" style="rounded=0;orthogonalLoop=1;jettySize=auto;html=1;exitX=1;exitY=0.5;exitDx=0;exitDy=0;endArrow=none;endFill=0;entryX=1;entryY=1;entryDx=0;entryDy=0;" edge="1" parent="77gUK4rj3Sacq6G8mzVL-126" source="77gUK4rj3Sacq6G8mzVL-24" target="77gUK4rj3Sacq6G8mzVL-27">
          <mxGeometry relative="1" as="geometry">
            <mxPoint x="243.72999999999993" y="279.84000000000003" as="sourcePoint" />
            <mxPoint x="265.49374999999986" y="249.52499999999998" as="targetPoint" />
          </mxGeometry>
        </mxCell>
        <mxCell id="77gUK4rj3Sacq6G8mzVL-27" value="" style="ellipse;whiteSpace=wrap;html=1;" vertex="1" parent="77gUK4rj3Sacq6G8mzVL-126">
          <mxGeometry x="250.3199999999999" y="220.47000000000003" width="19.685" height="19.685" as="geometry" />
        </mxCell>
        <mxCell id="77gUK4rj3Sacq6G8mzVL-19" style="rounded=0;orthogonalLoop=1;jettySize=auto;html=1;exitX=1;exitY=0.5;exitDx=0;exitDy=0;endArrow=none;endFill=0;entryX=0;entryY=1;entryDx=0;entryDy=0;" edge="1" parent="77gUK4rj3Sacq6G8mzVL-126" source="77gUK4rj3Sacq6G8mzVL-20" target="77gUK4rj3Sacq6G8mzVL-27">
          <mxGeometry relative="1" as="geometry">
            <mxPoint x="255.65124999999992" y="249.52499999999998" as="targetPoint" />
          </mxGeometry>
        </mxCell>
        <mxCell id="77gUK4rj3Sacq6G8mzVL-28" value="" style="endArrow=none;html=1;rounded=0;entryX=0;entryY=0.25;entryDx=0;entryDy=0;" edge="1" parent="77gUK4rj3Sacq6G8mzVL-126" target="77gUK4rj3Sacq6G8mzVL-29">
          <mxGeometry width="50" height="50" relative="1" as="geometry">
            <mxPoint x="309.04999999999995" y="319.84000000000003" as="sourcePoint" />
            <mxPoint x="309.04999999999995" y="309.84000000000003" as="targetPoint" />
          </mxGeometry>
        </mxCell>
        <mxCell id="77gUK4rj3Sacq6G8mzVL-29" value="" style="triangle;whiteSpace=wrap;html=1;rotation=-90;" vertex="1" parent="77gUK4rj3Sacq6G8mzVL-126">
          <mxGeometry x="309.04999999999995" y="269.84000000000003" width="19.685" height="19.685" as="geometry" />
        </mxCell>
        <mxCell id="77gUK4rj3Sacq6G8mzVL-30" value="" style="endArrow=none;html=1;rounded=0;entryX=0;entryY=0.25;entryDx=0;entryDy=0;strokeColor=#FF0000;" edge="1" parent="77gUK4rj3Sacq6G8mzVL-126">
          <mxGeometry width="50" height="50" relative="1" as="geometry">
            <mxPoint x="329.04999999999995" y="319.84000000000003" as="sourcePoint" />
            <mxPoint x="324.04999999999995" y="289.52000000000004" as="targetPoint" />
          </mxGeometry>
        </mxCell>
        <mxCell id="77gUK4rj3Sacq6G8mzVL-31" value="" style="ellipse;whiteSpace=wrap;html=1;aspect=fixed;" vertex="1" parent="77gUK4rj3Sacq6G8mzVL-126">
          <mxGeometry x="335" y="220.47000000000003" width="19.69" height="19.685" as="geometry" />
        </mxCell>
        <mxCell id="77gUK4rj3Sacq6G8mzVL-32" value="" style="endArrow=none;html=1;rounded=0;entryX=0;entryY=1;entryDx=0;entryDy=0;exitX=1;exitY=0.5;exitDx=0;exitDy=0;" edge="1" parent="77gUK4rj3Sacq6G8mzVL-126" source="77gUK4rj3Sacq6G8mzVL-29" target="77gUK4rj3Sacq6G8mzVL-31">
          <mxGeometry width="50" height="50" relative="1" as="geometry">
            <mxPoint x="280.7299999999999" y="329.84000000000003" as="sourcePoint" />
            <mxPoint x="275.7299999999999" y="299.52000000000004" as="targetPoint" />
          </mxGeometry>
        </mxCell>
        <mxCell id="77gUK4rj3Sacq6G8mzVL-33" value="" style="endArrow=none;html=1;rounded=0;entryX=1;entryY=1;entryDx=0;entryDy=0;" edge="1" parent="77gUK4rj3Sacq6G8mzVL-126" target="77gUK4rj3Sacq6G8mzVL-31">
          <mxGeometry width="50" height="50" relative="1" as="geometry">
            <mxPoint x="369.04999999999995" y="319.84000000000003" as="sourcePoint" />
            <mxPoint x="352.04999999999995" y="260.84000000000003" as="targetPoint" />
          </mxGeometry>
        </mxCell>
        <mxCell id="77gUK4rj3Sacq6G8mzVL-34" value="" style="triangle;whiteSpace=wrap;html=1;rotation=-90;" vertex="1" parent="77gUK4rj3Sacq6G8mzVL-126">
          <mxGeometry x="59.99999999999997" y="210.16000000000003" width="19.685" height="19.685" as="geometry" />
        </mxCell>
        <mxCell id="77gUK4rj3Sacq6G8mzVL-36" style="rounded=0;orthogonalLoop=1;jettySize=auto;html=1;exitX=1;exitY=0;exitDx=0;exitDy=0;endArrow=none;endFill=0;entryX=0;entryY=0.25;entryDx=0;entryDy=0;" edge="1" parent="77gUK4rj3Sacq6G8mzVL-126" source="77gUK4rj3Sacq6G8mzVL-27" target="77gUK4rj3Sacq6G8mzVL-121">
          <mxGeometry relative="1" as="geometry">
            <mxPoint x="293.04999999999995" y="279.84000000000003" as="sourcePoint" />
            <mxPoint x="295.98280150616915" y="196.96219849383073" as="targetPoint" />
          </mxGeometry>
        </mxCell>
        <mxCell id="77gUK4rj3Sacq6G8mzVL-37" style="rounded=0;orthogonalLoop=1;jettySize=auto;html=1;exitX=0.5;exitY=0;exitDx=0;exitDy=0;endArrow=none;endFill=0;" edge="1" parent="77gUK4rj3Sacq6G8mzVL-126" source="77gUK4rj3Sacq6G8mzVL-31">
          <mxGeometry relative="1" as="geometry">
            <mxPoint x="275.04999999999995" y="246.84000000000003" as="sourcePoint" />
            <mxPoint x="305.31999999999994" y="200.16000000000003" as="targetPoint" />
          </mxGeometry>
        </mxCell>
        <mxCell id="77gUK4rj3Sacq6G8mzVL-59" style="rounded=0;orthogonalLoop=1;jettySize=auto;html=1;endArrow=none;endFill=0;entryX=0;entryY=0.25;entryDx=0;entryDy=0;exitX=1;exitY=0.5;exitDx=0;exitDy=0;" edge="1" parent="77gUK4rj3Sacq6G8mzVL-126" source="77gUK4rj3Sacq6G8mzVL-6" target="77gUK4rj3Sacq6G8mzVL-34">
          <mxGeometry relative="1" as="geometry">
            <mxPoint x="105.31999999999996" y="330.16" as="sourcePoint" />
            <mxPoint x="87.31999999999996" y="260.16" as="targetPoint" />
          </mxGeometry>
        </mxCell>
        <mxCell id="77gUK4rj3Sacq6G8mzVL-60" style="rounded=0;orthogonalLoop=1;jettySize=auto;html=1;endArrow=none;endFill=0;entryX=0;entryY=0.75;entryDx=0;entryDy=0;" edge="1" parent="77gUK4rj3Sacq6G8mzVL-126" target="77gUK4rj3Sacq6G8mzVL-34">
          <mxGeometry relative="1" as="geometry">
            <mxPoint x="95.31999999999996" y="320.16" as="sourcePoint" />
            <mxPoint x="97.31999999999996" y="270.16" as="targetPoint" />
          </mxGeometry>
        </mxCell>
        <mxCell id="77gUK4rj3Sacq6G8mzVL-61" value="" style="ellipse;whiteSpace=wrap;html=1;" vertex="1" parent="77gUK4rj3Sacq6G8mzVL-126">
          <mxGeometry x="96.53999999999999" y="180.16000000000003" width="19.685" height="19.685" as="geometry" />
        </mxCell>
        <mxCell id="77gUK4rj3Sacq6G8mzVL-62" style="rounded=0;orthogonalLoop=1;jettySize=auto;html=1;endArrow=none;endFill=0;entryX=1;entryY=0.5;entryDx=0;entryDy=0;exitX=0;exitY=1;exitDx=0;exitDy=0;" edge="1" parent="77gUK4rj3Sacq6G8mzVL-126" source="77gUK4rj3Sacq6G8mzVL-61" target="77gUK4rj3Sacq6G8mzVL-34">
          <mxGeometry relative="1" as="geometry">
            <mxPoint x="105.31999999999996" y="330.16" as="sourcePoint" />
            <mxPoint x="84.31999999999996" y="240.16000000000003" as="targetPoint" />
          </mxGeometry>
        </mxCell>
        <mxCell id="77gUK4rj3Sacq6G8mzVL-63" value="" style="endArrow=none;html=1;rounded=0;entryX=0;entryY=0.25;entryDx=0;entryDy=0;" edge="1" parent="77gUK4rj3Sacq6G8mzVL-126" target="77gUK4rj3Sacq6G8mzVL-65">
          <mxGeometry width="50" height="50" relative="1" as="geometry">
            <mxPoint x="129.35999999999993" y="320.00000000000006" as="sourcePoint" />
            <mxPoint x="129.35999999999993" y="310.00000000000006" as="targetPoint" />
          </mxGeometry>
        </mxCell>
        <mxCell id="77gUK4rj3Sacq6G8mzVL-65" value="" style="triangle;whiteSpace=wrap;html=1;rotation=-90;" vertex="1" parent="77gUK4rj3Sacq6G8mzVL-126">
          <mxGeometry x="129.35999999999993" y="270.00000000000006" width="19.685" height="19.685" as="geometry" />
        </mxCell>
        <mxCell id="77gUK4rj3Sacq6G8mzVL-66" value="" style="endArrow=none;html=1;rounded=0;entryX=0;entryY=0.25;entryDx=0;entryDy=0;" edge="1" parent="77gUK4rj3Sacq6G8mzVL-126">
          <mxGeometry width="50" height="50" relative="1" as="geometry">
            <mxPoint x="149.35999999999993" y="320.00000000000006" as="sourcePoint" />
            <mxPoint x="144.35999999999993" y="289.68000000000006" as="targetPoint" />
          </mxGeometry>
        </mxCell>
        <mxCell id="77gUK4rj3Sacq6G8mzVL-67" value="" style="triangle;whiteSpace=wrap;html=1;rotation=-90;" vertex="1" parent="77gUK4rj3Sacq6G8mzVL-126">
          <mxGeometry x="140.9" y="240.00000000000006" width="19.685" height="19.685" as="geometry" />
        </mxCell>
        <mxCell id="77gUK4rj3Sacq6G8mzVL-68" style="rounded=0;orthogonalLoop=1;jettySize=auto;html=1;endArrow=none;endFill=0;entryX=0;entryY=0.75;entryDx=0;entryDy=0;" edge="1" parent="77gUK4rj3Sacq6G8mzVL-126" target="77gUK4rj3Sacq6G8mzVL-67">
          <mxGeometry relative="1" as="geometry">
            <mxPoint x="169.35999999999993" y="320.00000000000006" as="sourcePoint" />
            <mxPoint x="169.35999999999993" y="240.00000000000006" as="targetPoint" />
          </mxGeometry>
        </mxCell>
        <mxCell id="77gUK4rj3Sacq6G8mzVL-64" style="rounded=0;orthogonalLoop=1;jettySize=auto;html=1;exitX=1;exitY=0.5;exitDx=0;exitDy=0;endArrow=none;endFill=0;entryX=0;entryY=0.25;entryDx=0;entryDy=0;" edge="1" parent="77gUK4rj3Sacq6G8mzVL-126" source="77gUK4rj3Sacq6G8mzVL-65" target="77gUK4rj3Sacq6G8mzVL-67">
          <mxGeometry relative="1" as="geometry">
            <mxPoint x="159.35999999999993" y="240.00000000000006" as="targetPoint" />
          </mxGeometry>
        </mxCell>
        <mxCell id="77gUK4rj3Sacq6G8mzVL-69" style="rounded=0;orthogonalLoop=1;jettySize=auto;html=1;endArrow=none;endFill=0;entryX=1;entryY=1;entryDx=0;entryDy=0;exitX=1;exitY=0.5;exitDx=0;exitDy=0;" edge="1" parent="77gUK4rj3Sacq6G8mzVL-126" source="77gUK4rj3Sacq6G8mzVL-67" target="77gUK4rj3Sacq6G8mzVL-61">
          <mxGeometry relative="1" as="geometry">
            <mxPoint x="179.35999999999993" y="330.00000000000006" as="sourcePoint" />
            <mxPoint x="165.31999999999996" y="270.16" as="targetPoint" />
          </mxGeometry>
        </mxCell>
        <mxCell id="77gUK4rj3Sacq6G8mzVL-70" value="" style="endArrow=none;html=1;rounded=0;entryX=0;entryY=0.25;entryDx=0;entryDy=0;" edge="1" parent="77gUK4rj3Sacq6G8mzVL-126" target="77gUK4rj3Sacq6G8mzVL-72">
          <mxGeometry width="50" height="50" relative="1" as="geometry">
            <mxPoint x="195.31999999999996" y="139.68000000000004" as="sourcePoint" />
            <mxPoint x="195.31999999999996" y="129.68000000000004" as="targetPoint" />
          </mxGeometry>
        </mxCell>
        <mxCell id="77gUK4rj3Sacq6G8mzVL-72" value="" style="triangle;whiteSpace=wrap;html=1;rotation=-90;" vertex="1" parent="77gUK4rj3Sacq6G8mzVL-126">
          <mxGeometry x="195.31999999999996" y="89.68000000000004" width="19.685" height="19.685" as="geometry" />
        </mxCell>
        <mxCell id="77gUK4rj3Sacq6G8mzVL-73" value="" style="endArrow=none;html=1;rounded=0;entryX=0;entryY=0.25;entryDx=0;entryDy=0;" edge="1" parent="77gUK4rj3Sacq6G8mzVL-126">
          <mxGeometry width="50" height="50" relative="1" as="geometry">
            <mxPoint x="215.31999999999996" y="139.68000000000004" as="sourcePoint" />
            <mxPoint x="210.31999999999996" y="109.36000000000004" as="targetPoint" />
          </mxGeometry>
        </mxCell>
        <mxCell id="77gUK4rj3Sacq6G8mzVL-74" value="" style="triangle;whiteSpace=wrap;html=1;rotation=-90;" vertex="1" parent="77gUK4rj3Sacq6G8mzVL-126">
          <mxGeometry x="206.85999999999993" y="59.68000000000004" width="19.685" height="19.685" as="geometry" />
        </mxCell>
        <mxCell id="77gUK4rj3Sacq6G8mzVL-71" style="rounded=0;orthogonalLoop=1;jettySize=auto;html=1;exitX=1;exitY=0.5;exitDx=0;exitDy=0;endArrow=none;endFill=0;entryX=0;entryY=0.25;entryDx=0;entryDy=0;" edge="1" parent="77gUK4rj3Sacq6G8mzVL-126" source="77gUK4rj3Sacq6G8mzVL-72" target="77gUK4rj3Sacq6G8mzVL-74">
          <mxGeometry relative="1" as="geometry">
            <mxPoint x="225.31999999999996" y="59.68000000000004" as="targetPoint" />
          </mxGeometry>
        </mxCell>
        <mxCell id="77gUK4rj3Sacq6G8mzVL-75" style="rounded=0;orthogonalLoop=1;jettySize=auto;html=1;endArrow=none;endFill=0;entryX=0;entryY=0.75;entryDx=0;entryDy=0;" edge="1" parent="77gUK4rj3Sacq6G8mzVL-126" target="77gUK4rj3Sacq6G8mzVL-74">
          <mxGeometry relative="1" as="geometry">
            <mxPoint x="235.31999999999996" y="139.68000000000004" as="sourcePoint" />
            <mxPoint x="235.31999999999996" y="59.68000000000004" as="targetPoint" />
          </mxGeometry>
        </mxCell>
        <mxCell id="77gUK4rj3Sacq6G8mzVL-79" value="" style="ellipse;whiteSpace=wrap;html=1;aspect=fixed;" vertex="1" parent="77gUK4rj3Sacq6G8mzVL-126">
          <mxGeometry x="226.54" y="29.680000000000042" width="19.69" height="19.685" as="geometry" />
        </mxCell>
        <mxCell id="77gUK4rj3Sacq6G8mzVL-80" value="" style="endArrow=none;html=1;rounded=0;exitX=1;exitY=0.5;exitDx=0;exitDy=0;entryX=0;entryY=1;entryDx=0;entryDy=0;" edge="1" parent="77gUK4rj3Sacq6G8mzVL-126" source="77gUK4rj3Sacq6G8mzVL-74" target="77gUK4rj3Sacq6G8mzVL-79">
          <mxGeometry width="50" height="50" relative="1" as="geometry">
            <mxPoint x="229.8425" y="29.6800000000001" as="sourcePoint" />
            <mxPoint x="359.31999999999994" y="119.68000000000004" as="targetPoint" />
          </mxGeometry>
        </mxCell>
        <mxCell id="77gUK4rj3Sacq6G8mzVL-81" value="" style="endArrow=none;html=1;rounded=0;entryX=0;entryY=0.25;entryDx=0;entryDy=0;" edge="1" parent="77gUK4rj3Sacq6G8mzVL-126" target="77gUK4rj3Sacq6G8mzVL-82">
          <mxGeometry width="50" height="50" relative="1" as="geometry">
            <mxPoint x="255.31999999999996" y="140.00000000000003" as="sourcePoint" />
            <mxPoint x="255.31999999999996" y="130.00000000000003" as="targetPoint" />
          </mxGeometry>
        </mxCell>
        <mxCell id="77gUK4rj3Sacq6G8mzVL-82" value="" style="triangle;whiteSpace=wrap;html=1;rotation=-90;" vertex="1" parent="77gUK4rj3Sacq6G8mzVL-126">
          <mxGeometry x="255.31999999999996" y="90.00000000000003" width="19.685" height="19.685" as="geometry" />
        </mxCell>
        <mxCell id="77gUK4rj3Sacq6G8mzVL-83" value="" style="endArrow=none;html=1;rounded=0;entryX=0;entryY=0.25;entryDx=0;entryDy=0;" edge="1" parent="77gUK4rj3Sacq6G8mzVL-126">
          <mxGeometry width="50" height="50" relative="1" as="geometry">
            <mxPoint x="275.31999999999994" y="140.00000000000003" as="sourcePoint" />
            <mxPoint x="270.31999999999994" y="109.68000000000009" as="targetPoint" />
          </mxGeometry>
        </mxCell>
        <mxCell id="77gUK4rj3Sacq6G8mzVL-84" style="rounded=0;orthogonalLoop=1;jettySize=auto;html=1;endArrow=none;endFill=0;entryX=1;entryY=1;entryDx=0;entryDy=0;exitX=1;exitY=0.5;exitDx=0;exitDy=0;" edge="1" parent="77gUK4rj3Sacq6G8mzVL-126" source="77gUK4rj3Sacq6G8mzVL-82" target="77gUK4rj3Sacq6G8mzVL-79">
          <mxGeometry relative="1" as="geometry">
            <mxPoint x="265.31999999999994" y="80.00000000000003" as="sourcePoint" />
            <mxPoint x="102.31999999999996" y="227.00000000000003" as="targetPoint" />
          </mxGeometry>
        </mxCell>
        <mxCell id="77gUK4rj3Sacq6G8mzVL-86" value="" style="triangle;whiteSpace=wrap;html=1;rotation=-90;" vertex="1" parent="77gUK4rj3Sacq6G8mzVL-126">
          <mxGeometry x="265.31999999999994" y="3.197442310920451e-14" width="19.685" height="19.685" as="geometry" />
        </mxCell>
        <mxCell id="77gUK4rj3Sacq6G8mzVL-87" style="rounded=0;orthogonalLoop=1;jettySize=auto;html=1;exitX=1;exitY=0;exitDx=0;exitDy=0;endArrow=none;endFill=0;entryX=0;entryY=0.25;entryDx=0;entryDy=0;" edge="1" parent="77gUK4rj3Sacq6G8mzVL-126" source="77gUK4rj3Sacq6G8mzVL-79" target="77gUK4rj3Sacq6G8mzVL-86">
          <mxGeometry relative="1" as="geometry">
            <mxPoint x="135.31999999999996" y="64.00000000000003" as="sourcePoint" />
            <mxPoint x="96.31999999999994" y="37.000000000000036" as="targetPoint" />
          </mxGeometry>
        </mxCell>
        <mxCell id="77gUK4rj3Sacq6G8mzVL-88" value="" style="ellipse;whiteSpace=wrap;html=1;aspect=fixed;" vertex="1" parent="77gUK4rj3Sacq6G8mzVL-126">
          <mxGeometry x="294.68999999999994" y="89.68000000000004" width="19.69" height="19.685" as="geometry" />
        </mxCell>
        <mxCell id="77gUK4rj3Sacq6G8mzVL-89" value="" style="endArrow=none;html=1;rounded=0;entryX=0;entryY=0.75;entryDx=0;entryDy=0;exitX=0.5;exitY=0;exitDx=0;exitDy=0;" edge="1" parent="77gUK4rj3Sacq6G8mzVL-126" source="77gUK4rj3Sacq6G8mzVL-88" target="77gUK4rj3Sacq6G8mzVL-86">
          <mxGeometry width="50" height="50" relative="1" as="geometry">
            <mxPoint x="285.31999999999994" y="150.00000000000003" as="sourcePoint" />
            <mxPoint x="280.31999999999994" y="119.68000000000009" as="targetPoint" />
          </mxGeometry>
        </mxCell>
        <mxCell id="77gUK4rj3Sacq6G8mzVL-90" value="" style="endArrow=none;html=1;rounded=0;entryX=0;entryY=1;entryDx=0;entryDy=0;" edge="1" parent="77gUK4rj3Sacq6G8mzVL-126" target="77gUK4rj3Sacq6G8mzVL-88">
          <mxGeometry width="50" height="50" relative="1" as="geometry">
            <mxPoint x="295.31999999999994" y="140.00000000000003" as="sourcePoint" />
            <mxPoint x="220.31999999999996" y="119.36000000000004" as="targetPoint" />
          </mxGeometry>
        </mxCell>
        <mxCell id="77gUK4rj3Sacq6G8mzVL-91" value="" style="endArrow=none;html=1;rounded=0;entryX=1;entryY=1;entryDx=0;entryDy=0;" edge="1" parent="77gUK4rj3Sacq6G8mzVL-126" target="77gUK4rj3Sacq6G8mzVL-88">
          <mxGeometry width="50" height="50" relative="1" as="geometry">
            <mxPoint x="325.31999999999994" y="140.00000000000003" as="sourcePoint" />
            <mxPoint x="230.31999999999996" y="129.36000000000004" as="targetPoint" />
          </mxGeometry>
        </mxCell>
        <mxCell id="77gUK4rj3Sacq6G8mzVL-92" value="" style="ellipse;whiteSpace=wrap;html=1;aspect=fixed;" vertex="1" parent="77gUK4rj3Sacq6G8mzVL-126">
          <mxGeometry x="85.31999999999994" y="60.160000000000046" width="19.69" height="19.685" as="geometry" />
        </mxCell>
        <mxCell id="77gUK4rj3Sacq6G8mzVL-93" value="" style="endArrow=none;html=1;rounded=0;entryX=0;entryY=1;entryDx=0;entryDy=0;" edge="1" parent="77gUK4rj3Sacq6G8mzVL-126" target="77gUK4rj3Sacq6G8mzVL-92">
          <mxGeometry width="50" height="50" relative="1" as="geometry">
            <mxPoint x="80.31999999999994" y="114.84000000000003" as="sourcePoint" />
            <mxPoint x="5.319999999999936" y="94.20000000000005" as="targetPoint" />
          </mxGeometry>
        </mxCell>
        <mxCell id="77gUK4rj3Sacq6G8mzVL-94" value="" style="endArrow=none;html=1;rounded=0;entryX=1;entryY=1;entryDx=0;entryDy=0;" edge="1" parent="77gUK4rj3Sacq6G8mzVL-126" target="77gUK4rj3Sacq6G8mzVL-92">
          <mxGeometry width="50" height="50" relative="1" as="geometry">
            <mxPoint x="110.31999999999996" y="114.84000000000003" as="sourcePoint" />
            <mxPoint x="15.319999999999936" y="104.20000000000005" as="targetPoint" />
          </mxGeometry>
        </mxCell>
        <mxCell id="77gUK4rj3Sacq6G8mzVL-95" value="&lt;font size=&quot;1&quot; face=&quot;Times New Roman&quot;&gt;&lt;i style=&quot;font-size: 13px;&quot;&gt;a&lt;/i&gt;&lt;/font&gt;" style="text;html=1;strokeColor=none;fillColor=none;align=center;verticalAlign=middle;whiteSpace=wrap;rounded=0;" vertex="1" parent="77gUK4rj3Sacq6G8mzVL-126">
          <mxGeometry x="66.21999999999997" y="109.36000000000001" width="30.32" height="30" as="geometry" />
        </mxCell>
        <mxCell id="77gUK4rj3Sacq6G8mzVL-96" value="&lt;font size=&quot;1&quot; face=&quot;Times New Roman&quot;&gt;&lt;i style=&quot;font-size: 13px;&quot;&gt;b&lt;/i&gt;&lt;/font&gt;" style="text;html=1;strokeColor=none;fillColor=none;align=center;verticalAlign=middle;whiteSpace=wrap;rounded=0;" vertex="1" parent="77gUK4rj3Sacq6G8mzVL-126">
          <mxGeometry x="96.53999999999996" y="109.36000000000001" width="30.32" height="30" as="geometry" />
        </mxCell>
        <mxCell id="77gUK4rj3Sacq6G8mzVL-98" value="&lt;font size=&quot;1&quot; face=&quot;Times New Roman&quot;&gt;&lt;i style=&quot;font-size: 13px;&quot;&gt;a&lt;sub&gt;1&lt;/sub&gt;&lt;/i&gt;&lt;/font&gt;" style="text;html=1;strokeColor=none;fillColor=none;align=center;verticalAlign=middle;whiteSpace=wrap;rounded=0;" vertex="1" parent="77gUK4rj3Sacq6G8mzVL-126">
          <mxGeometry x="281.4599999999999" y="136.36" width="30.32" height="30" as="geometry" />
        </mxCell>
        <mxCell id="77gUK4rj3Sacq6G8mzVL-99" value="&lt;font size=&quot;1&quot; face=&quot;Times New Roman&quot;&gt;&lt;i style=&quot;font-size: 13px;&quot;&gt;b&lt;sub&gt;1&lt;/sub&gt;&lt;/i&gt;&lt;/font&gt;" style="text;html=1;strokeColor=none;fillColor=none;align=center;verticalAlign=middle;whiteSpace=wrap;rounded=0;" vertex="1" parent="77gUK4rj3Sacq6G8mzVL-126">
          <mxGeometry x="309.04999999999995" y="136.36" width="30.32" height="30" as="geometry" />
        </mxCell>
        <mxCell id="77gUK4rj3Sacq6G8mzVL-100" value="&lt;font size=&quot;1&quot; face=&quot;Times New Roman&quot;&gt;&lt;i style=&quot;font-size: 13px;&quot;&gt;b&lt;sub&gt;2&lt;/sub&gt;&lt;/i&gt;&lt;/font&gt;" style="text;html=1;strokeColor=none;fillColor=none;align=center;verticalAlign=middle;whiteSpace=wrap;rounded=0;" vertex="1" parent="77gUK4rj3Sacq6G8mzVL-126">
          <mxGeometry x="243.08999999999995" y="136.36" width="30.32" height="30" as="geometry" />
        </mxCell>
        <mxCell id="77gUK4rj3Sacq6G8mzVL-101" value="&lt;font size=&quot;1&quot; face=&quot;Times New Roman&quot;&gt;&lt;i style=&quot;font-size: 13px;&quot;&gt;b&lt;sub&gt;3&lt;/sub&gt;&lt;/i&gt;&lt;/font&gt;" style="text;html=1;strokeColor=none;fillColor=none;align=center;verticalAlign=middle;whiteSpace=wrap;rounded=0;" vertex="1" parent="77gUK4rj3Sacq6G8mzVL-126">
          <mxGeometry x="260" y="139.36" width="30.32" height="30" as="geometry" />
        </mxCell>
        <mxCell id="77gUK4rj3Sacq6G8mzVL-102" value="&lt;font size=&quot;1&quot; face=&quot;Times New Roman&quot;&gt;&lt;i style=&quot;font-size: 13px;&quot;&gt;a&lt;sub&gt;2&lt;/sub&gt;&lt;/i&gt;&lt;/font&gt;" style="text;html=1;strokeColor=none;fillColor=none;align=center;verticalAlign=middle;whiteSpace=wrap;rounded=0;" vertex="1" parent="77gUK4rj3Sacq6G8mzVL-126">
          <mxGeometry x="184.67999999999998" y="136.36" width="30.32" height="30" as="geometry" />
        </mxCell>
        <mxCell id="77gUK4rj3Sacq6G8mzVL-103" value="&lt;font size=&quot;1&quot; face=&quot;Times New Roman&quot;&gt;&lt;i style=&quot;font-size: 13px;&quot;&gt;a&lt;sub&gt;3&lt;/sub&gt;&lt;/i&gt;&lt;/font&gt;" style="text;html=1;strokeColor=none;fillColor=none;align=center;verticalAlign=middle;whiteSpace=wrap;rounded=0;" vertex="1" parent="77gUK4rj3Sacq6G8mzVL-126">
          <mxGeometry x="201.54" y="136.36" width="30.32" height="30" as="geometry" />
        </mxCell>
        <mxCell id="77gUK4rj3Sacq6G8mzVL-104" value="&lt;font size=&quot;1&quot; face=&quot;Times New Roman&quot;&gt;&lt;i style=&quot;font-size: 13px;&quot;&gt;a&lt;sub&gt;4&lt;/sub&gt;&lt;/i&gt;&lt;/font&gt;" style="text;html=1;strokeColor=none;fillColor=none;align=center;verticalAlign=middle;whiteSpace=wrap;rounded=0;" vertex="1" parent="77gUK4rj3Sacq6G8mzVL-126">
          <mxGeometry x="221.23" y="136.36" width="30.32" height="30" as="geometry" />
        </mxCell>
        <mxCell id="77gUK4rj3Sacq6G8mzVL-105" value="&lt;font size=&quot;1&quot; face=&quot;Times New Roman&quot;&gt;&lt;i style=&quot;font-size: 13px;&quot;&gt;a3&lt;/i&gt;&lt;/font&gt;" style="text;html=1;strokeColor=none;fillColor=none;align=center;verticalAlign=middle;whiteSpace=wrap;rounded=0;" vertex="1" parent="77gUK4rj3Sacq6G8mzVL-126">
          <mxGeometry x="24.680000000000007" y="320.16" width="30.32" height="30" as="geometry" />
        </mxCell>
        <mxCell id="77gUK4rj3Sacq6G8mzVL-106" value="&lt;font size=&quot;1&quot; face=&quot;Times New Roman&quot;&gt;&lt;i style=&quot;font-size: 13px;&quot;&gt;a4&lt;/i&gt;&lt;/font&gt;" style="text;html=1;strokeColor=none;fillColor=none;align=center;verticalAlign=middle;whiteSpace=wrap;rounded=0;" vertex="1" parent="77gUK4rj3Sacq6G8mzVL-126">
          <mxGeometry x="41.54000000000002" y="320.16" width="30.32" height="30" as="geometry" />
        </mxCell>
        <mxCell id="77gUK4rj3Sacq6G8mzVL-107" value="&lt;font size=&quot;1&quot; face=&quot;Times New Roman&quot;&gt;&lt;i style=&quot;font-size: 13px;&quot;&gt;a&lt;sub&gt;2&lt;/sub&gt;&lt;/i&gt;&lt;/font&gt;" style="text;html=1;strokeColor=none;fillColor=none;align=center;verticalAlign=middle;whiteSpace=wrap;rounded=0;" vertex="1" parent="77gUK4rj3Sacq6G8mzVL-126">
          <mxGeometry x="60.00000000000003" y="320.16" width="30.32" height="30" as="geometry" />
        </mxCell>
        <mxCell id="77gUK4rj3Sacq6G8mzVL-108" value="&lt;font size=&quot;1&quot; face=&quot;Times New Roman&quot;&gt;&lt;i style=&quot;font-size: 13px;&quot;&gt;a&lt;sub&gt;1&lt;/sub&gt;&lt;/i&gt;&lt;/font&gt;" style="text;html=1;strokeColor=none;fillColor=none;align=center;verticalAlign=middle;whiteSpace=wrap;rounded=0;" vertex="1" parent="77gUK4rj3Sacq6G8mzVL-126">
          <mxGeometry x="85.32000000000002" y="320.16" width="30.32" height="30" as="geometry" />
        </mxCell>
        <mxCell id="77gUK4rj3Sacq6G8mzVL-111" value="&lt;font size=&quot;1&quot; face=&quot;Times New Roman&quot;&gt;&lt;i style=&quot;font-size: 13px;&quot;&gt;b&lt;sub&gt;2&lt;/sub&gt;&lt;/i&gt;&lt;/font&gt;" style="text;html=1;strokeColor=none;fillColor=none;align=center;verticalAlign=middle;whiteSpace=wrap;rounded=0;" vertex="1" parent="77gUK4rj3Sacq6G8mzVL-126">
          <mxGeometry x="115.6399999999999" y="320.16" width="30.32" height="30" as="geometry" />
        </mxCell>
        <mxCell id="77gUK4rj3Sacq6G8mzVL-112" value="&lt;font size=&quot;1&quot; face=&quot;Times New Roman&quot;&gt;&lt;i style=&quot;font-size: 13px;&quot;&gt;b&lt;sub&gt;3&lt;/sub&gt;&lt;/i&gt;&lt;/font&gt;" style="text;html=1;strokeColor=none;fillColor=none;align=center;verticalAlign=middle;whiteSpace=wrap;rounded=0;" vertex="1" parent="77gUK4rj3Sacq6G8mzVL-126">
          <mxGeometry x="135.5799999999999" y="320.16" width="30.32" height="30" as="geometry" />
        </mxCell>
        <mxCell id="77gUK4rj3Sacq6G8mzVL-113" value="&lt;font size=&quot;1&quot; face=&quot;Times New Roman&quot;&gt;&lt;i style=&quot;font-size: 13px;&quot;&gt;b&lt;sub&gt;1&lt;/sub&gt;&lt;/i&gt;&lt;/font&gt;" style="text;html=1;strokeColor=none;fillColor=none;align=center;verticalAlign=middle;whiteSpace=wrap;rounded=0;" vertex="1" parent="77gUK4rj3Sacq6G8mzVL-126">
          <mxGeometry x="154.35999999999987" y="320.16" width="30.32" height="30" as="geometry" />
        </mxCell>
        <mxCell id="77gUK4rj3Sacq6G8mzVL-114" value="&lt;font color=&quot;#009900&quot; size=&quot;1&quot; face=&quot;Times New Roman&quot;&gt;&lt;i style=&quot;font-size: 13px;&quot;&gt;b&lt;sub style=&quot;&quot;&gt;1&lt;/sub&gt;&lt;/i&gt;&lt;/font&gt;" style="text;html=1;strokeColor=none;fillColor=none;align=center;verticalAlign=middle;whiteSpace=wrap;rounded=0;" vertex="1" parent="77gUK4rj3Sacq6G8mzVL-126">
          <mxGeometry x="355.31999999999994" y="320.16" width="30.32" height="30" as="geometry" />
        </mxCell>
        <mxCell id="77gUK4rj3Sacq6G8mzVL-115" value="&lt;font color=&quot;#009900&quot; size=&quot;1&quot; face=&quot;Times New Roman&quot;&gt;&lt;i style=&quot;font-size: 13px;&quot;&gt;a&lt;sub&gt;1&lt;/sub&gt;&lt;/i&gt;&lt;/font&gt;" style="text;html=1;strokeColor=none;fillColor=none;align=center;verticalAlign=middle;whiteSpace=wrap;rounded=0;" vertex="1" parent="77gUK4rj3Sacq6G8mzVL-126">
          <mxGeometry x="295.41999999999996" y="320.16" width="30.32" height="30" as="geometry" />
        </mxCell>
        <mxCell id="77gUK4rj3Sacq6G8mzVL-116" value="&lt;font color=&quot;#ff0000&quot; size=&quot;1&quot; face=&quot;Times New Roman&quot;&gt;&lt;i style=&quot;font-size: 13px;&quot;&gt;a&lt;sub&gt;2&lt;/sub&gt;&lt;/i&gt;&lt;/font&gt;" style="text;html=1;strokeColor=none;fillColor=none;align=center;verticalAlign=middle;whiteSpace=wrap;rounded=0;" vertex="1" parent="77gUK4rj3Sacq6G8mzVL-126">
          <mxGeometry x="316.38" y="320.16" width="30.32" height="30" as="geometry" />
        </mxCell>
        <mxCell id="77gUK4rj3Sacq6G8mzVL-117" value="&lt;font color=&quot;#0000cc&quot; size=&quot;1&quot; face=&quot;Times New Roman&quot;&gt;&lt;i style=&quot;font-size: 13px;&quot;&gt;a&lt;sub&gt;3&lt;/sub&gt;&lt;/i&gt;&lt;/font&gt;" style="text;html=1;strokeColor=none;fillColor=none;align=center;verticalAlign=middle;whiteSpace=wrap;rounded=0;" vertex="1" parent="77gUK4rj3Sacq6G8mzVL-126">
          <mxGeometry x="255.31999999999996" y="320.16" width="30.32" height="30" as="geometry" />
        </mxCell>
        <mxCell id="77gUK4rj3Sacq6G8mzVL-118" value="&lt;font color=&quot;#0000cc&quot; size=&quot;1&quot; face=&quot;Times New Roman&quot;&gt;&lt;i style=&quot;font-size: 13px;&quot;&gt;a&lt;sub&gt;4&lt;/sub&gt;&lt;/i&gt;&lt;/font&gt;" style="text;html=1;strokeColor=none;fillColor=none;align=center;verticalAlign=middle;whiteSpace=wrap;rounded=0;" vertex="1" parent="77gUK4rj3Sacq6G8mzVL-126">
          <mxGeometry x="285" y="320.16" width="16.59" height="30" as="geometry" />
        </mxCell>
        <mxCell id="77gUK4rj3Sacq6G8mzVL-119" value="&lt;font color=&quot;#0000cc&quot; size=&quot;1&quot; face=&quot;Times New Roman&quot;&gt;&lt;i style=&quot;font-size: 13px;&quot;&gt;b&lt;sub&gt;3&lt;/sub&gt;&lt;/i&gt;&lt;/font&gt;" style="text;html=1;strokeColor=none;fillColor=none;align=center;verticalAlign=middle;whiteSpace=wrap;rounded=0;" vertex="1" parent="77gUK4rj3Sacq6G8mzVL-126">
          <mxGeometry x="231.85999999999999" y="320.16" width="30.32" height="30" as="geometry" />
        </mxCell>
        <mxCell id="77gUK4rj3Sacq6G8mzVL-120" value="&lt;font color=&quot;#0000cc&quot; size=&quot;1&quot; face=&quot;Times New Roman&quot;&gt;&lt;i style=&quot;font-size: 13px;&quot;&gt;b&lt;sub&gt;2&lt;/sub&gt;&lt;/i&gt;&lt;/font&gt;" style="text;html=1;strokeColor=none;fillColor=none;align=center;verticalAlign=middle;whiteSpace=wrap;rounded=0;" vertex="1" parent="77gUK4rj3Sacq6G8mzVL-126">
          <mxGeometry x="206.85999999999999" y="320.16" width="30.32" height="30" as="geometry" />
        </mxCell>
        <mxCell id="77gUK4rj3Sacq6G8mzVL-121" value="" style="triangle;whiteSpace=wrap;html=1;rotation=-90;" vertex="1" parent="77gUK4rj3Sacq6G8mzVL-126">
          <mxGeometry x="293.0999999999999" y="180.16000000000003" width="19.685" height="19.685" as="geometry" />
        </mxCell>
        <mxCell id="77gUK4rj3Sacq6G8mzVL-122" value="&lt;b&gt;(A)&lt;/b&gt;" style="text;html=1;strokeColor=none;fillColor=none;align=center;verticalAlign=middle;whiteSpace=wrap;rounded=0;" vertex="1" parent="77gUK4rj3Sacq6G8mzVL-126">
          <mxGeometry x="15.159999999999968" y="24.520000000000046" width="60" height="30" as="geometry" />
        </mxCell>
        <mxCell id="77gUK4rj3Sacq6G8mzVL-123" value="&lt;b&gt;(B)&lt;/b&gt;" style="text;html=1;strokeColor=none;fillColor=none;align=center;verticalAlign=middle;whiteSpace=wrap;rounded=0;" vertex="1" parent="77gUK4rj3Sacq6G8mzVL-126">
          <mxGeometry x="166.54" y="24.520000000000046" width="60" height="30" as="geometry" />
        </mxCell>
        <mxCell id="77gUK4rj3Sacq6G8mzVL-124" value="&lt;b&gt;(C)&lt;/b&gt;" style="text;html=1;strokeColor=none;fillColor=none;align=center;verticalAlign=middle;whiteSpace=wrap;rounded=0;" vertex="1" parent="77gUK4rj3Sacq6G8mzVL-126">
          <mxGeometry y="180.16000000000003" width="60" height="30" as="geometry" />
        </mxCell>
        <mxCell id="77gUK4rj3Sacq6G8mzVL-125" value="&lt;b&gt;(D)&lt;/b&gt;" style="text;html=1;strokeColor=none;fillColor=none;align=center;verticalAlign=middle;whiteSpace=wrap;rounded=0;" vertex="1" parent="77gUK4rj3Sacq6G8mzVL-126">
          <mxGeometry x="200.00000000000003" y="180.16000000000003" width="60" height="30" as="geometry" />
        </mxCell>
        <mxCell id="77gUK4rj3Sacq6G8mzVL-128" value="" style="ellipse;whiteSpace=wrap;html=1;aspect=fixed;fontStyle=0;strokeWidth=1;container=0;" vertex="1" parent="1">
          <mxGeometry x="251.77999999999997" y="755" width="7.874" height="7.87" as="geometry" />
        </mxCell>
        <mxCell id="77gUK4rj3Sacq6G8mzVL-129" value="" style="endArrow=none;html=1;rounded=0;entryX=0;entryY=1;entryDx=0;entryDy=0;" edge="1" parent="1" target="77gUK4rj3Sacq6G8mzVL-128">
          <mxGeometry width="50" height="50" relative="1" as="geometry">
            <mxPoint x="241.77999999999997" y="804.6800000000001" as="sourcePoint" />
            <mxPoint x="166.77999999999997" y="784.04" as="targetPoint" />
          </mxGeometry>
        </mxCell>
        <mxCell id="77gUK4rj3Sacq6G8mzVL-130" value="" style="endArrow=none;html=1;rounded=0;entryX=1;entryY=1;entryDx=0;entryDy=0;" edge="1" parent="1" target="77gUK4rj3Sacq6G8mzVL-128">
          <mxGeometry width="50" height="50" relative="1" as="geometry">
            <mxPoint x="271.78" y="804.6800000000001" as="sourcePoint" />
            <mxPoint x="258" y="761" as="targetPoint" />
          </mxGeometry>
        </mxCell>
        <mxCell id="77gUK4rj3Sacq6G8mzVL-131" value="&lt;font size=&quot;1&quot; face=&quot;Times New Roman&quot;&gt;&lt;i style=&quot;font-size: 9px;&quot;&gt;a&lt;/i&gt;&lt;/font&gt;" style="text;html=1;strokeColor=none;fillColor=none;align=center;verticalAlign=middle;whiteSpace=wrap;rounded=0;container=0;" vertex="1" parent="1">
          <mxGeometry x="230" y="803.6" width="18.78" height="19.2" as="geometry" />
        </mxCell>
        <mxCell id="77gUK4rj3Sacq6G8mzVL-132" value="&lt;font size=&quot;1&quot; face=&quot;Times New Roman&quot;&gt;&lt;i style=&quot;font-size: 9px;&quot;&gt;b&lt;/i&gt;&lt;/font&gt;" style="text;html=1;strokeColor=none;fillColor=none;align=center;verticalAlign=middle;whiteSpace=wrap;rounded=0;container=0;" vertex="1" parent="1">
          <mxGeometry x="258" y="798.2" width="30.32" height="30" as="geometry" />
        </mxCell>
        <mxCell id="77gUK4rj3Sacq6G8mzVL-133" value="" style="whiteSpace=wrap;html=1;aspect=fixed;fontSize=11;container=0;" vertex="1" parent="1">
          <mxGeometry x="333" y="755" width="7.874" height="7.87" as="geometry" />
        </mxCell>
        <mxCell id="77gUK4rj3Sacq6G8mzVL-134" value="" style="endArrow=none;html=1;rounded=0;entryX=0;entryY=1;entryDx=0;entryDy=0;exitX=0.5;exitY=0;exitDx=0;exitDy=0;strokeWidth=1;" edge="1" parent="1" source="77gUK4rj3Sacq6G8mzVL-136" target="77gUK4rj3Sacq6G8mzVL-133">
          <mxGeometry width="50" height="50" relative="1" as="geometry">
            <mxPoint x="323" y="800" as="sourcePoint" />
            <mxPoint x="252" y="775" as="targetPoint" />
          </mxGeometry>
        </mxCell>
        <mxCell id="77gUK4rj3Sacq6G8mzVL-135" value="" style="endArrow=none;html=1;rounded=0;entryX=1;entryY=1;entryDx=0;entryDy=0;exitX=0.5;exitY=0;exitDx=0;exitDy=0;" edge="1" parent="1" source="77gUK4rj3Sacq6G8mzVL-137" target="77gUK4rj3Sacq6G8mzVL-133">
          <mxGeometry width="50" height="50" relative="1" as="geometry">
            <mxPoint x="353" y="800" as="sourcePoint" />
            <mxPoint x="343" y="777" as="targetPoint" />
          </mxGeometry>
        </mxCell>
        <mxCell id="77gUK4rj3Sacq6G8mzVL-136" value="" style="ellipse;whiteSpace=wrap;html=1;aspect=fixed;fontStyle=0;strokeWidth=1;container=0;" vertex="1" parent="1">
          <mxGeometry x="317" y="803.6" width="7.874" height="7.87" as="geometry" />
        </mxCell>
        <mxCell id="77gUK4rj3Sacq6G8mzVL-137" value="" style="ellipse;whiteSpace=wrap;html=1;aspect=fixed;fontStyle=0;strokeWidth=1;container=0;" vertex="1" parent="1">
          <mxGeometry x="352" y="803.6" width="7.874" height="7.87" as="geometry" />
        </mxCell>
        <mxCell id="77gUK4rj3Sacq6G8mzVL-139" value="" style="whiteSpace=wrap;html=1;aspect=fixed;fontSize=11;container=0;" vertex="1" parent="1">
          <mxGeometry x="293" y="850" width="7.874" height="7.87" as="geometry" />
        </mxCell>
        <mxCell id="77gUK4rj3Sacq6G8mzVL-140" value="" style="endArrow=none;html=1;rounded=0;exitX=0.5;exitY=0;exitDx=0;exitDy=0;entryX=0;entryY=1;entryDx=0;entryDy=0;" edge="1" parent="1" source="77gUK4rj3Sacq6G8mzVL-139" target="77gUK4rj3Sacq6G8mzVL-136">
          <mxGeometry width="50" height="50" relative="1" as="geometry">
            <mxPoint x="331" y="814" as="sourcePoint" />
            <mxPoint x="323" y="810" as="targetPoint" />
          </mxGeometry>
        </mxCell>
        <mxCell id="77gUK4rj3Sacq6G8mzVL-141" value="" style="endArrow=none;html=1;rounded=0;entryX=1;entryY=1;entryDx=0;entryDy=0;exitX=0.5;exitY=0;exitDx=0;exitDy=0;" edge="1" parent="1" source="77gUK4rj3Sacq6G8mzVL-148" target="77gUK4rj3Sacq6G8mzVL-136">
          <mxGeometry width="50" height="50" relative="1" as="geometry">
            <mxPoint x="331" y="880" as="sourcePoint" />
            <mxPoint x="321.72017202127296" y="810.3181720212731" as="targetPoint" />
          </mxGeometry>
        </mxCell>
        <mxCell id="77gUK4rj3Sacq6G8mzVL-142" value="" style="endArrow=none;html=1;rounded=0;entryX=0;entryY=1;entryDx=0;entryDy=0;exitX=0.5;exitY=0;exitDx=0;exitDy=0;" edge="1" parent="1" source="77gUK4rj3Sacq6G8mzVL-149" target="77gUK4rj3Sacq6G8mzVL-137">
          <mxGeometry width="50" height="50" relative="1" as="geometry">
            <mxPoint x="343" y="880" as="sourcePoint" />
            <mxPoint x="338" y="830" as="targetPoint" />
          </mxGeometry>
        </mxCell>
        <mxCell id="77gUK4rj3Sacq6G8mzVL-143" value="" style="endArrow=none;html=1;rounded=0;entryX=0.75;entryY=1;entryDx=0;entryDy=0;" edge="1" parent="1" source="77gUK4rj3Sacq6G8mzVL-147" target="77gUK4rj3Sacq6G8mzVL-139">
          <mxGeometry width="50" height="50" relative="1" as="geometry">
            <mxPoint x="303" y="880" as="sourcePoint" />
            <mxPoint x="334" y="820" as="targetPoint" />
          </mxGeometry>
        </mxCell>
        <mxCell id="77gUK4rj3Sacq6G8mzVL-144" value="" style="endArrow=none;html=1;rounded=0;entryX=0.25;entryY=1;entryDx=0;entryDy=0;exitX=0.5;exitY=0;exitDx=0;exitDy=0;" edge="1" parent="1" source="77gUK4rj3Sacq6G8mzVL-146" target="77gUK4rj3Sacq6G8mzVL-139">
          <mxGeometry width="50" height="50" relative="1" as="geometry">
            <mxPoint x="292" y="880" as="sourcePoint" />
            <mxPoint x="293.96850000000006" y="857.8700000000001" as="targetPoint" />
          </mxGeometry>
        </mxCell>
        <mxCell id="77gUK4rj3Sacq6G8mzVL-145" value="" style="endArrow=none;html=1;rounded=0;entryX=1;entryY=1;entryDx=0;entryDy=0;exitX=0.5;exitY=0;exitDx=0;exitDy=0;" edge="1" parent="1" source="77gUK4rj3Sacq6G8mzVL-150" target="77gUK4rj3Sacq6G8mzVL-137">
          <mxGeometry width="50" height="50" relative="1" as="geometry">
            <mxPoint x="366" y="880" as="sourcePoint" />
            <mxPoint x="361.72017202127296" y="810.3181720212731" as="targetPoint" />
          </mxGeometry>
        </mxCell>
        <mxCell id="77gUK4rj3Sacq6G8mzVL-146" value="&lt;font style=&quot;font-size: 9px;&quot; face=&quot;Times New Roman&quot;&gt;&lt;i style=&quot;&quot;&gt;a&lt;sub&gt;1&lt;/sub&gt;&lt;/i&gt;&lt;/font&gt;" style="text;html=1;strokeColor=none;fillColor=none;align=center;verticalAlign=middle;whiteSpace=wrap;rounded=0;container=0;" vertex="1" parent="1">
          <mxGeometry x="279.09000000000003" y="872.4" width="18.78" height="19.2" as="geometry" />
        </mxCell>
        <mxCell id="77gUK4rj3Sacq6G8mzVL-147" value="&lt;font style=&quot;font-size: 9px;&quot; face=&quot;Times New Roman&quot;&gt;&lt;i style=&quot;&quot;&gt;a&lt;sub&gt;2&lt;/sub&gt;&lt;/i&gt;&lt;/font&gt;" style="text;html=1;strokeColor=none;fillColor=none;align=center;verticalAlign=middle;whiteSpace=wrap;rounded=0;container=0;" vertex="1" parent="1">
          <mxGeometry x="297.87" y="874" width="18.78" height="16" as="geometry" />
        </mxCell>
        <mxCell id="77gUK4rj3Sacq6G8mzVL-148" value="&lt;font style=&quot;font-size: 9px;&quot; face=&quot;Times New Roman&quot;&gt;&lt;i style=&quot;&quot;&gt;b&lt;sub&gt;1&lt;/sub&gt;&lt;/i&gt;&lt;/font&gt;" style="text;html=1;strokeColor=none;fillColor=none;align=center;verticalAlign=middle;whiteSpace=wrap;rounded=0;container=0;" vertex="1" parent="1">
          <mxGeometry x="322.09" y="877.2" width="18.78" height="16" as="geometry" />
        </mxCell>
        <mxCell id="77gUK4rj3Sacq6G8mzVL-149" value="&lt;font style=&quot;font-size: 9px;&quot; face=&quot;Times New Roman&quot;&gt;&lt;i style=&quot;&quot;&gt;a&lt;sub&gt;3&lt;/sub&gt;&lt;/i&gt;&lt;/font&gt;" style="text;html=1;strokeColor=none;fillColor=none;align=center;verticalAlign=middle;whiteSpace=wrap;rounded=0;container=0;" vertex="1" parent="1">
          <mxGeometry x="340.86999999999995" y="877.2" width="18.78" height="16" as="geometry" />
        </mxCell>
        <mxCell id="77gUK4rj3Sacq6G8mzVL-150" value="&lt;font style=&quot;font-size: 9px;&quot; face=&quot;Times New Roman&quot;&gt;&lt;i style=&quot;&quot;&gt;b&lt;sub&gt;2&lt;/sub&gt;&lt;/i&gt;&lt;/font&gt;" style="text;html=1;strokeColor=none;fillColor=none;align=center;verticalAlign=middle;whiteSpace=wrap;rounded=0;container=0;" vertex="1" parent="1">
          <mxGeometry x="359.87" y="877.2" width="18.78" height="16" as="geometry" />
        </mxCell>
        <mxCell id="77gUK4rj3Sacq6G8mzVL-151" value="&lt;font size=&quot;1&quot; style=&quot;&quot;&gt;&lt;b style=&quot;font-size: 13px;&quot;&gt;S&lt;/b&gt;&lt;/font&gt;" style="text;html=1;strokeColor=none;fillColor=none;align=center;verticalAlign=middle;whiteSpace=wrap;rounded=0;container=0;" vertex="1" parent="1">
          <mxGeometry x="246.33" y="720" width="18.78" height="19.2" as="geometry" />
        </mxCell>
        <mxCell id="77gUK4rj3Sacq6G8mzVL-152" value="&lt;font size=&quot;1&quot; style=&quot;&quot;&gt;&lt;b style=&quot;font-size: 13px;&quot;&gt;G&lt;/b&gt;&lt;/font&gt;" style="text;html=1;strokeColor=none;fillColor=none;align=center;verticalAlign=middle;whiteSpace=wrap;rounded=0;container=0;" vertex="1" parent="1">
          <mxGeometry x="327.55" y="720" width="18.78" height="19.2" as="geometry" />
        </mxCell>
        <mxCell id="77gUK4rj3Sacq6G8mzVL-153" value="" style="whiteSpace=wrap;html=1;aspect=fixed;fontSize=11;container=0;" vertex="1" parent="1">
          <mxGeometry x="451.43" y="755" width="7.874" height="7.87" as="geometry" />
        </mxCell>
        <mxCell id="77gUK4rj3Sacq6G8mzVL-154" value="" style="endArrow=none;html=1;rounded=0;entryX=0;entryY=1;entryDx=0;entryDy=0;exitX=0.5;exitY=0;exitDx=0;exitDy=0;" edge="1" parent="1" source="77gUK4rj3Sacq6G8mzVL-158" target="77gUK4rj3Sacq6G8mzVL-153">
          <mxGeometry width="50" height="50" relative="1" as="geometry">
            <mxPoint x="424.43" y="807.87" as="sourcePoint" />
            <mxPoint x="324.43" y="780.87" as="targetPoint" />
          </mxGeometry>
        </mxCell>
        <mxCell id="77gUK4rj3Sacq6G8mzVL-155" value="" style="endArrow=none;html=1;rounded=0;entryX=1;entryY=0.5;entryDx=0;entryDy=0;exitX=1;exitY=1;exitDx=0;exitDy=0;" edge="1" parent="1" source="77gUK4rj3Sacq6G8mzVL-153" target="77gUK4rj3Sacq6G8mzVL-156">
          <mxGeometry width="50" height="50" relative="1" as="geometry">
            <mxPoint x="434.43" y="817.87" as="sourcePoint" />
            <mxPoint x="463.43" y="772.87" as="targetPoint" />
          </mxGeometry>
        </mxCell>
        <mxCell id="77gUK4rj3Sacq6G8mzVL-156" value="" style="triangle;whiteSpace=wrap;html=1;rotation=-90;container=0;" vertex="1" parent="1">
          <mxGeometry x="479.88" y="803.6" width="7.874" height="7.874" as="geometry" />
        </mxCell>
        <mxCell id="77gUK4rj3Sacq6G8mzVL-158" value="" style="ellipse;whiteSpace=wrap;html=1;aspect=fixed;fontStyle=0;strokeWidth=1;container=0;" vertex="1" parent="1">
          <mxGeometry x="424.75" y="803.6" width="7.874" height="7.87" as="geometry" />
        </mxCell>
        <mxCell id="77gUK4rj3Sacq6G8mzVL-159" value="" style="triangle;whiteSpace=wrap;html=1;rotation=-90;container=0;" vertex="1" parent="1">
          <mxGeometry x="410.43" y="833.2" width="7.874" height="7.874" as="geometry" />
        </mxCell>
        <mxCell id="77gUK4rj3Sacq6G8mzVL-160" value="" style="triangle;whiteSpace=wrap;html=1;rotation=-90;container=0;" vertex="1" parent="1">
          <mxGeometry x="439.3" y="832.6700000000001" width="7.874" height="7.874" as="geometry" />
        </mxCell>
        <mxCell id="77gUK4rj3Sacq6G8mzVL-161" value="" style="endArrow=none;html=1;rounded=0;entryX=0;entryY=1;entryDx=0;entryDy=0;exitX=1;exitY=0.5;exitDx=0;exitDy=0;" edge="1" parent="1" source="77gUK4rj3Sacq6G8mzVL-159" target="77gUK4rj3Sacq6G8mzVL-158">
          <mxGeometry width="50" height="50" relative="1" as="geometry">
            <mxPoint x="437.43" y="821.87" as="sourcePoint" />
            <mxPoint x="461.43" y="772.87" as="targetPoint" />
          </mxGeometry>
        </mxCell>
        <mxCell id="77gUK4rj3Sacq6G8mzVL-162" value="" style="endArrow=none;html=1;rounded=0;entryX=1;entryY=0.5;entryDx=0;entryDy=0;exitX=1;exitY=1;exitDx=0;exitDy=0;" edge="1" parent="1" source="77gUK4rj3Sacq6G8mzVL-158" target="77gUK4rj3Sacq6G8mzVL-160">
          <mxGeometry width="50" height="50" relative="1" as="geometry">
            <mxPoint x="447.43" y="831.87" as="sourcePoint" />
            <mxPoint x="471.43" y="782.87" as="targetPoint" />
          </mxGeometry>
        </mxCell>
        <mxCell id="77gUK4rj3Sacq6G8mzVL-163" value="" style="endArrow=none;html=1;rounded=0;entryX=0;entryY=0.25;entryDx=0;entryDy=0;exitX=0.5;exitY=0;exitDx=0;exitDy=0;" edge="1" parent="1" source="77gUK4rj3Sacq6G8mzVL-164" target="77gUK4rj3Sacq6G8mzVL-159">
          <mxGeometry width="50" height="50" relative="1" as="geometry">
            <mxPoint x="457.43" y="841.87" as="sourcePoint" />
            <mxPoint x="481.43" y="792.87" as="targetPoint" />
          </mxGeometry>
        </mxCell>
        <mxCell id="77gUK4rj3Sacq6G8mzVL-164" value="" style="whiteSpace=wrap;html=1;aspect=fixed;fontSize=11;container=0;" vertex="1" parent="1">
          <mxGeometry x="397.43" y="855" width="7.874" height="7.87" as="geometry" />
        </mxCell>
        <mxCell id="77gUK4rj3Sacq6G8mzVL-166" value="" style="endArrow=none;html=1;rounded=0;exitX=0.25;exitY=1;exitDx=0;exitDy=0;" edge="1" parent="1" source="77gUK4rj3Sacq6G8mzVL-164">
          <mxGeometry width="50" height="50" relative="1" as="geometry">
            <mxPoint x="404.39850000000007" y="862.8700000000002" as="sourcePoint" />
            <mxPoint x="389.43" y="907.8699999999999" as="targetPoint" />
          </mxGeometry>
        </mxCell>
        <mxCell id="77gUK4rj3Sacq6G8mzVL-167" value="" style="endArrow=none;html=1;rounded=0;exitX=0.75;exitY=1;exitDx=0;exitDy=0;" edge="1" parent="1" source="77gUK4rj3Sacq6G8mzVL-164">
          <mxGeometry width="50" height="50" relative="1" as="geometry">
            <mxPoint x="399.3355000000001" y="862.8700000000002" as="sourcePoint" />
            <mxPoint x="410.43" y="907.8699999999999" as="targetPoint" />
          </mxGeometry>
        </mxCell>
        <mxCell id="77gUK4rj3Sacq6G8mzVL-168" value="" style="endArrow=none;html=1;rounded=0;entryX=0;entryY=0.75;entryDx=0;entryDy=0;dashed=1;dashPattern=1 2;" edge="1" parent="1" target="77gUK4rj3Sacq6G8mzVL-159">
          <mxGeometry width="50" height="50" relative="1" as="geometry">
            <mxPoint x="429.43" y="907.8699999999999" as="sourcePoint" />
            <mxPoint x="421.33549999999997" y="841.0740000000002" as="targetPoint" />
          </mxGeometry>
        </mxCell>
        <mxCell id="77gUK4rj3Sacq6G8mzVL-169" value="" style="endArrow=none;html=1;rounded=0;entryX=0;entryY=0.25;entryDx=0;entryDy=0;" edge="1" parent="1" target="77gUK4rj3Sacq6G8mzVL-160">
          <mxGeometry width="50" height="50" relative="1" as="geometry">
            <mxPoint x="441.43" y="907.8699999999999" as="sourcePoint" />
            <mxPoint x="452.43" y="880.87" as="targetPoint" />
          </mxGeometry>
        </mxCell>
        <mxCell id="77gUK4rj3Sacq6G8mzVL-170" value="" style="endArrow=none;html=1;rounded=0;entryX=0;entryY=0.75;entryDx=0;entryDy=0;strokeWidth=1;dashed=1;dashPattern=1 2;" edge="1" parent="1" target="77gUK4rj3Sacq6G8mzVL-160">
          <mxGeometry width="50" height="50" relative="1" as="geometry">
            <mxPoint x="454.43" y="907.8699999999999" as="sourcePoint" />
            <mxPoint x="462.43" y="890.87" as="targetPoint" />
          </mxGeometry>
        </mxCell>
        <mxCell id="77gUK4rj3Sacq6G8mzVL-171" value="" style="endArrow=none;html=1;rounded=0;entryX=0;entryY=0.25;entryDx=0;entryDy=0;" edge="1" parent="1" target="77gUK4rj3Sacq6G8mzVL-156">
          <mxGeometry width="50" height="50" relative="1" as="geometry">
            <mxPoint x="469.43" y="907.8699999999999" as="sourcePoint" />
            <mxPoint x="477.39849999999984" y="819.9440000000001" as="targetPoint" />
          </mxGeometry>
        </mxCell>
        <mxCell id="77gUK4rj3Sacq6G8mzVL-172" value="" style="ellipse;whiteSpace=wrap;html=1;aspect=fixed;fontStyle=0;strokeWidth=1;container=0;" vertex="1" parent="1">
          <mxGeometry x="492.3" y="836.07" width="7.874" height="7.87" as="geometry" />
        </mxCell>
        <mxCell id="77gUK4rj3Sacq6G8mzVL-173" value="" style="triangle;whiteSpace=wrap;html=1;rotation=-90;container=0;" vertex="1" parent="1">
          <mxGeometry x="504.43" y="855.0000000000001" width="7.874" height="7.874" as="geometry" />
        </mxCell>
        <mxCell id="77gUK4rj3Sacq6G8mzVL-174" value="" style="endArrow=none;html=1;rounded=0;entryX=0;entryY=0.75;entryDx=0;entryDy=0;exitX=0.5;exitY=0;exitDx=0;exitDy=0;dashed=1;strokeWidth=1;dashPattern=1 2;" edge="1" parent="1" source="77gUK4rj3Sacq6G8mzVL-172" target="77gUK4rj3Sacq6G8mzVL-156">
          <mxGeometry width="50" height="50" relative="1" as="geometry">
            <mxPoint x="479.43" y="917.8699999999999" as="sourcePoint" />
            <mxPoint x="492.43" y="829.87" as="targetPoint" />
          </mxGeometry>
        </mxCell>
        <mxCell id="77gUK4rj3Sacq6G8mzVL-175" value="" style="endArrow=none;html=1;rounded=0;entryX=1;entryY=1;entryDx=0;entryDy=0;exitX=1;exitY=0.5;exitDx=0;exitDy=0;" edge="1" parent="1" source="77gUK4rj3Sacq6G8mzVL-173" target="77gUK4rj3Sacq6G8mzVL-172">
          <mxGeometry width="50" height="50" relative="1" as="geometry">
            <mxPoint x="489.43" y="927.8699999999999" as="sourcePoint" />
            <mxPoint x="502.43" y="839.87" as="targetPoint" />
          </mxGeometry>
        </mxCell>
        <mxCell id="77gUK4rj3Sacq6G8mzVL-176" value="" style="endArrow=none;html=1;rounded=0;entryX=0;entryY=1;entryDx=0;entryDy=0;" edge="1" parent="1" target="77gUK4rj3Sacq6G8mzVL-172">
          <mxGeometry width="50" height="50" relative="1" as="geometry">
            <mxPoint x="484.43" y="907.8699999999999" as="sourcePoint" />
            <mxPoint x="512.43" y="849.87" as="targetPoint" />
          </mxGeometry>
        </mxCell>
        <mxCell id="77gUK4rj3Sacq6G8mzVL-177" value="" style="endArrow=none;html=1;rounded=0;entryX=0;entryY=0.25;entryDx=0;entryDy=0;" edge="1" parent="1" target="77gUK4rj3Sacq6G8mzVL-173">
          <mxGeometry width="50" height="50" relative="1" as="geometry">
            <mxPoint x="504.43" y="907.8699999999999" as="sourcePoint" />
            <mxPoint x="522.43" y="859.87" as="targetPoint" />
          </mxGeometry>
        </mxCell>
        <mxCell id="77gUK4rj3Sacq6G8mzVL-178" value="" style="endArrow=none;html=1;rounded=0;entryX=0;entryY=0.75;entryDx=0;entryDy=0;" edge="1" parent="1" target="77gUK4rj3Sacq6G8mzVL-173">
          <mxGeometry width="50" height="50" relative="1" as="geometry">
            <mxPoint x="514.43" y="907.8699999999999" as="sourcePoint" />
            <mxPoint x="532.43" y="869.87" as="targetPoint" />
          </mxGeometry>
        </mxCell>
        <mxCell id="77gUK4rj3Sacq6G8mzVL-179" value="&lt;font size=&quot;1&quot; style=&quot;&quot;&gt;&lt;b style=&quot;font-size: 13px;&quot;&gt;T&lt;/b&gt;&lt;/font&gt;" style="text;html=1;strokeColor=none;fillColor=none;align=center;verticalAlign=middle;whiteSpace=wrap;rounded=0;container=0;" vertex="1" parent="1">
          <mxGeometry x="445.98" y="720" width="18.78" height="19.2" as="geometry" />
        </mxCell>
        <mxCell id="77gUK4rj3Sacq6G8mzVL-183" value="" style="endArrow=none;html=1;rounded=0;exitX=0.5;exitY=0;exitDx=0;exitDy=0;" edge="1" parent="1" source="77gUK4rj3Sacq6G8mzVL-180">
          <mxGeometry width="50" height="50" relative="1" as="geometry">
            <mxPoint x="409.8200000000001" y="884.5999999999999" as="sourcePoint" />
            <mxPoint x="420.43" y="860" as="targetPoint" />
          </mxGeometry>
        </mxCell>
        <mxCell id="77gUK4rj3Sacq6G8mzVL-187" value="" style="endArrow=none;html=1;rounded=0;entryX=0.5;entryY=0;entryDx=0;entryDy=0;" edge="1" parent="1" target="77gUK4rj3Sacq6G8mzVL-185">
          <mxGeometry width="50" height="50" relative="1" as="geometry">
            <mxPoint x="479.43" y="840" as="sourcePoint" />
            <mxPoint x="488.8200000000001" y="864.5999999999999" as="targetPoint" />
          </mxGeometry>
        </mxCell>
        <mxCell id="77gUK4rj3Sacq6G8mzVL-180" value="" style="rounded=0;whiteSpace=wrap;html=1;strokeWidth=1;strokeColor=#000000;fillColor=#FFFF66;perimeterSpacing=0;container=0;" vertex="1" parent="1">
          <mxGeometry x="410.42999999999995" y="872.4000000000001" width="7.874" height="7.874" as="geometry" />
        </mxCell>
        <mxCell id="77gUK4rj3Sacq6G8mzVL-188" value="&lt;font color=&quot;#ff0000&quot; style=&quot;font-size: 7px;&quot; face=&quot;Times New Roman&quot;&gt;&lt;i style=&quot;&quot;&gt;a&lt;sub&gt;11&lt;/sub&gt;&lt;/i&gt;&lt;/font&gt;" style="text;html=1;strokeColor=none;fillColor=none;align=center;verticalAlign=middle;whiteSpace=wrap;rounded=0;container=0;" vertex="1" parent="1">
          <mxGeometry x="378.65000000000003" y="904" width="18.78" height="19.2" as="geometry" />
        </mxCell>
        <mxCell id="77gUK4rj3Sacq6G8mzVL-189" value="&lt;font color=&quot;#ff0000&quot; style=&quot;font-size: 7px;&quot; face=&quot;Times New Roman&quot;&gt;&lt;i style=&quot;&quot;&gt;a&lt;sub&gt;21&lt;/sub&gt;&lt;/i&gt;&lt;/font&gt;" style="text;html=1;strokeColor=none;fillColor=none;align=center;verticalAlign=middle;whiteSpace=wrap;rounded=0;container=0;" vertex="1" parent="1">
          <mxGeometry x="402.52000000000004" y="904" width="18.78" height="19.2" as="geometry" />
        </mxCell>
        <mxCell id="77gUK4rj3Sacq6G8mzVL-190" value="&lt;font color=&quot;#ff33ff&quot; style=&quot;font-size: 7px;&quot; face=&quot;Times New Roman&quot;&gt;&lt;i style=&quot;&quot;&gt;a&lt;sub style=&quot;&quot;&gt;22&lt;/sub&gt;&lt;/i&gt;&lt;/font&gt;" style="text;html=1;strokeColor=none;fillColor=none;align=center;verticalAlign=middle;whiteSpace=wrap;rounded=0;container=0;" vertex="1" parent="1">
          <mxGeometry x="419.3" y="904" width="18.78" height="19.2" as="geometry" />
        </mxCell>
        <mxCell id="77gUK4rj3Sacq6G8mzVL-191" value="&lt;font color=&quot;#ff0000&quot; style=&quot;font-size: 7px;&quot; face=&quot;Times New Roman&quot;&gt;&lt;i style=&quot;&quot;&gt;b&lt;sub&gt;11&lt;/sub&gt;&lt;/i&gt;&lt;/font&gt;" style="text;html=1;strokeColor=none;fillColor=none;align=center;verticalAlign=middle;whiteSpace=wrap;rounded=0;container=0;" vertex="1" parent="1">
          <mxGeometry x="429.28" y="904" width="23.91" height="19.2" as="geometry" />
        </mxCell>
        <mxCell id="77gUK4rj3Sacq6G8mzVL-192" value="&lt;font color=&quot;#ffb366&quot; style=&quot;font-size: 7px;&quot; face=&quot;Times New Roman&quot;&gt;&lt;i style=&quot;&quot;&gt;b&lt;sub style=&quot;&quot;&gt;12&lt;/sub&gt;&lt;/i&gt;&lt;/font&gt;" style="text;html=1;strokeColor=none;fillColor=none;align=center;verticalAlign=middle;whiteSpace=wrap;rounded=0;container=0;" vertex="1" parent="1">
          <mxGeometry x="442.98" y="905.5999999999999" width="23.91" height="16" as="geometry" />
        </mxCell>
        <mxCell id="77gUK4rj3Sacq6G8mzVL-193" value="&lt;font color=&quot;#ff0000&quot; style=&quot;font-size: 7px;&quot; face=&quot;Times New Roman&quot;&gt;&lt;i style=&quot;&quot;&gt;a&lt;sub&gt;31&lt;/sub&gt;&lt;/i&gt;&lt;/font&gt;" style="text;html=1;strokeColor=none;fillColor=none;align=center;verticalAlign=middle;whiteSpace=wrap;rounded=0;container=0;" vertex="1" parent="1">
          <mxGeometry x="459.3" y="905.5999999999999" width="23.91" height="16" as="geometry" />
        </mxCell>
        <mxCell id="77gUK4rj3Sacq6G8mzVL-194" value="&lt;font color=&quot;#0000cc&quot; style=&quot;font-size: 7px;&quot; face=&quot;Times New Roman&quot;&gt;&lt;i style=&quot;&quot;&gt;a&lt;sub&gt;32&lt;/sub&gt;&lt;/i&gt;&lt;/font&gt;" style="text;html=1;strokeColor=none;fillColor=none;align=center;verticalAlign=middle;whiteSpace=wrap;rounded=0;container=0;" vertex="1" parent="1">
          <mxGeometry x="474.43" y="905.5999999999999" width="23.91" height="16" as="geometry" />
        </mxCell>
        <mxCell id="77gUK4rj3Sacq6G8mzVL-195" value="&lt;font color=&quot;#0000cc&quot; style=&quot;font-size: 7px;&quot; face=&quot;Times New Roman&quot;&gt;&lt;i style=&quot;&quot;&gt;b&lt;sub&gt;21&lt;/sub&gt;&lt;/i&gt;&lt;/font&gt;" style="text;html=1;strokeColor=none;fillColor=none;align=center;verticalAlign=middle;whiteSpace=wrap;rounded=0;container=0;" vertex="1" parent="1">
          <mxGeometry x="492.3" y="905.5999999999999" width="23.91" height="16" as="geometry" />
        </mxCell>
        <mxCell id="77gUK4rj3Sacq6G8mzVL-196" value="&lt;font color=&quot;#00cc00&quot; style=&quot;font-size: 7px;&quot; face=&quot;Times New Roman&quot;&gt;&lt;i style=&quot;&quot;&gt;b&lt;sub style=&quot;&quot;&gt;22&lt;/sub&gt;&lt;/i&gt;&lt;/font&gt;" style="text;html=1;strokeColor=none;fillColor=none;align=center;verticalAlign=middle;whiteSpace=wrap;rounded=0;container=0;" vertex="1" parent="1">
          <mxGeometry x="504.43" y="905.5999999999999" width="23.91" height="16" as="geometry" />
        </mxCell>
        <mxCell id="77gUK4rj3Sacq6G8mzVL-185" value="" style="rounded=0;whiteSpace=wrap;html=1;strokeWidth=1;strokeColor=#000000;fillColor=#FFFF66;perimeterSpacing=0;container=0;" vertex="1" parent="1">
          <mxGeometry x="479.66999999999996" y="856.73" width="7.874" height="7.874" as="geometry" />
        </mxCell>
        <mxCell id="77gUK4rj3Sacq6G8mzVL-181" value="&lt;font style=&quot;font-size: 6px;&quot; face=&quot;Times New Roman&quot;&gt;&lt;i style=&quot;&quot;&gt;a&lt;sub style=&quot;&quot;&gt;1&lt;/sub&gt;&lt;/i&gt;&lt;/font&gt;" style="text;html=1;strokeColor=none;fillColor=none;align=center;verticalAlign=middle;whiteSpace=wrap;rounded=0;container=0;" vertex="1" parent="1">
          <mxGeometry x="405.3" y="865.6700000000001" width="18.78" height="14.6" as="geometry" />
        </mxCell>
        <mxCell id="77gUK4rj3Sacq6G8mzVL-186" value="&lt;font style=&quot;font-size: 6px;&quot; face=&quot;Times New Roman&quot;&gt;&lt;i style=&quot;&quot;&gt;b&lt;sub style=&quot;&quot;&gt;2&lt;/sub&gt;&lt;/i&gt;&lt;/font&gt;" style="text;html=1;strokeColor=none;fillColor=none;align=center;verticalAlign=middle;whiteSpace=wrap;rounded=0;container=0;" vertex="1" parent="1">
          <mxGeometry x="474.12" y="850.64" width="18.78" height="14.6" as="geometry" />
        </mxCell>
      </root>
    </mxGraphModel>
  </diagram>
</mxfile>
